<?xml version="1.0" standalone="no"?>
<svg xmlns:xlink="http://www.w3.org/1999/xlink" id="wave" style="transform:rotate(180deg); transition: 0.3s" viewBox="0 0 1440 100" version="1.1" xmlns="http://www.w3.org/2000/svg"><defs><linearGradient id="sw-gradient-0" x1="0" x2="0" y1="1" y2="0"><stop stop-color="rgba(255, 249, 234, 1)" offset="0%"/><stop stop-color="rgba(255, 249, 234, 1)" offset="100%"/></linearGradient></defs><path style="transform:translate(0, 0px); opacity:1" fill="url(#sw-gradient-0)" d="M0,60L30,51.7C60,43,120,27,180,25C240,23,300,37,360,46.7C420,57,480,63,540,68.3C600,73,660,77,720,76.7C780,77,840,73,900,73.3C960,73,1020,77,1080,70C1140,63,1200,47,1260,41.7C1320,37,1380,43,1440,46.7C1500,50,1560,50,1620,55C1680,60,1740,70,1800,65C1860,60,1920,40,1980,35C2040,30,2100,40,2160,43.3C2220,47,2280,43,2340,45C2400,47,2460,53,2520,58.3C2580,63,2640,67,2700,61.7C2760,57,2820,43,2880,31.7C2940,20,3000,10,3060,18.3C3120,27,3180,53,3240,60C3300,67,3360,53,3420,53.3C3480,53,3540,67,3600,75C3660,83,3720,87,3780,80C3840,73,3900,57,3960,51.7C4020,47,4080,53,4140,55C4200,57,4260,53,4290,51.7L4320,50L4320,100L4290,100C4260,100,4200,100,4140,100C4080,100,4020,100,3960,100C3900,100,3840,100,3780,100C3720,100,3660,100,3600,100C3540,100,3480,100,3420,100C3360,100,3300,100,3240,100C3180,100,3120,100,3060,100C3000,100,2940,100,2880,100C2820,100,2760,100,2700,100C2640,100,2580,100,2520,100C2460,100,2400,100,2340,100C2280,100,2220,100,2160,100C2100,100,2040,100,1980,100C1920,100,1860,100,1800,100C1740,100,1680,100,1620,100C1560,100,1500,100,1440,100C1380,100,1320,100,1260,100C1200,100,1140,100,1080,100C1020,100,960,100,900,100C840,100,780,100,720,100C660,100,600,100,540,100C480,100,420,100,360,100C300,100,240,100,180,100C120,100,60,100,30,100L0,100Z"/></svg>